<!-- Generated by IcoMoon.io -->
<svg version="1.1" xmlns="http://www.w3.org/2000/svg" width="32" height="32" viewBox="0 0 32 32">
<title>quote</title>
<path fill="#c52026" d="M16.002 32c-8.838 0-16.002-7.163-16.002-15.998s7.163-16.002 16.002-16.002 16.002 7.163 16.002 16.002-7.166 15.998-16.002 15.998z"></path>
<path fill="#fff" d="M12.895 19.5l-0.662-0.811c1.675-1.366 2.515-2.507 2.515-3.421 0-0.107-0.009-0.238-0.024-0.392-0.14 0.056-0.273 0.101-0.404 0.134s-0.252 0.050-0.368 0.050c-0.392 0-0.707-0.128-0.944-0.38s-0.356-0.576-0.356-0.968c0-0.383 0.143-0.719 0.431-1.007 0.285-0.285 0.63-0.431 1.031-0.431 0.555 0 1.031 0.223 1.428 0.668 0.395 0.445 0.594 1.019 0.594 1.723 0 0.457-0.095 0.938-0.282 1.44s-0.463 0.968-0.823 1.399c-0.362 0.431-1.072 1.096-2.135 1.996zM17.273 19.5l-0.662-0.811c1.675-1.366 2.515-2.507 2.515-3.421 0-0.107-0.009-0.238-0.024-0.392-0.14 0.056-0.273 0.101-0.404 0.134s-0.258 0.050-0.38 0.050c-0.383 0-0.695-0.128-0.933-0.38s-0.356-0.576-0.356-0.968c0-0.383 0.143-0.719 0.431-1.007 0.285-0.285 0.63-0.431 1.031-0.431 0.555 0 1.031 0.223 1.428 0.668 0.395 0.445 0.594 1.019 0.594 1.723 0 0.457-0.095 0.938-0.282 1.44s-0.463 0.968-0.823 1.399c-0.362 0.431-1.072 1.096-2.135 1.996z"></path>
</svg>
